<svg xmlns="http://www.w3.org/2000/svg" version="1.1" xmlns:xlink="http://www.w3.org/1999/xlink" xmlns:svgjs="http://svgjs.com/svgjs" width="512" height="512" x="0" y="0" viewBox="0 0 512 512" style="enable-background:new 0 0 512 512" xml:space="preserve" class=""><g><path fill="#584496" d="M512 256c0 141.387-114.613 256-256 256S0 397.387 0 256 114.613 0 256 0s256 114.613 256 256zm0 0" data-original="#584496"></path><path fill="#48a4ef" d="m210.496 387.688 203.29-352.11c6.55-11.344 2.663-25.848-8.68-32.394-11.344-6.551-25.848-2.664-32.399 8.68L169.418 363.968zm0 0" data-original="#48a4ef"></path><path fill="#5091de" d="m268.965 191.547-99.547 172.422 41.078 23.715 98.188-170.067c-18.641 10.07-41.54-4.469-39.72-26.07zm0 0" data-original="#5091de"></path><path fill="#85d0f9" d="m212.867 355.715 188.008-325.64c2.82-4.884 1.148-11.13-3.734-13.95-4.887-2.816-11.13-1.145-13.95 3.738l-188.007 325.64c-3.946 6.825 1.039 15.317 8.832 15.317 3.53 0 6.96-1.832 8.851-5.105zm0 0" data-original="#85d0f9"></path><path fill="#48a4ef" d="m273.777 209.371-78.593 136.133c-3.946 6.832 1.046 15.316 8.832 15.316 3.53 0 6.96-1.832 8.851-5.105l78.125-135.313a27.01 27.01 0 0 1-17.215-11.03zm0 0" data-original="#48a4ef"></path><path fill="#d1d0d6" d="M104.395 462.281a255.527 255.527 0 0 0 53.777 30.344l43.098-74.64-53.477-30.876zm0 0" data-original="#d1d0d6"></path><path fill="#48a4ef" d="m142.531 407.883-9.078-5.242c-7.523-4.344-17.14-1.766-21.484 5.757-4.344 7.524-1.766 17.141 5.758 21.485l9.078 5.238zm0 0" data-original="#48a4ef"></path><path fill="#5091de" d="M125.152 417.016c-6.05-3.493-9.972-8.536-10.082-12.442a15.59 15.59 0 0 0-3.101 3.824c-4.344 7.524-1.766 17.141 5.758 21.485l9.078 5.242 7.425-12.867zm0 0" data-original="#5091de"></path><path fill="#b5b2be" d="M104.395 462.281a255.782 255.782 0 0 0 25.953 16.793l44.183-76.527-26.738-15.438zm0 0" data-original="#b5b2be"></path><path fill="#ef4e57" d="M301.504 387.688 98.214 35.577c-6.55-11.344-2.663-25.848 8.68-32.394 11.344-6.551 25.848-2.664 32.399 8.68l203.289 352.105zm0 0" data-original="#ef4e57"></path><path fill="#f37254" d="M298.656 355.715 110.652 30.075c-2.82-4.884-1.148-11.13 3.735-13.95 4.886-2.816 11.129-1.145 13.949 3.738L316.344 345.5c3.941 6.828-1.04 15.32-8.832 15.32-3.532 0-6.961-1.832-8.856-5.105zm0 0" data-original="#f37254"></path><path fill="#b5b2be" d="m364.207 387.11-53.477 30.874 43.098 74.641a255.527 255.527 0 0 0 53.777-30.344zm0 0" data-original="#b5b2be"></path><path fill="#ef4e57" d="m369.469 407.883 9.078-5.242c7.523-4.344 17.14-1.766 21.484 5.757 4.344 7.524 1.766 17.141-5.758 21.485l-9.078 5.238zm0 0" data-original="#ef4e57"></path><path fill="#dd4351" d="M386.164 415.832c5.996-3.46 12.234-4.395 15.656-2.668-2.125-10.578-13.984-15.887-23.273-10.523l-9.078 5.242 7.617 13.191zm0 0" data-original="#dd4351"></path><path fill="#eceeed" d="m285.77 360.434 41.078-23.715 23.129 40.062-41.075 23.719zm0 0" data-original="#eceeed"></path><path fill="#d1d0d6" d="m285.77 360.434 20.539-11.86 23.132 40.067-20.539 11.859zm0 0" data-original="#d1d0d6"></path><path fill="#d1d0d6" d="M285.785 370.656c1.73 0 3.488-.441 5.098-1.37l41.078-23.716c4.883-2.82 6.555-9.066 3.734-13.949-2.816-4.887-9.062-6.559-13.949-3.738l-41.078 23.719c-4.883 2.82-6.555 9.062-3.734 13.949a10.21 10.21 0 0 0 8.851 5.105zm0 0" data-original="#d1d0d6"></path><path fill="#b5b2be" d="m299.191 340.906-18.52 10.696c-4.886 2.82-6.558 9.062-3.737 13.949a10.21 10.21 0 0 0 13.949 3.734l20.312-11.726c-9.136 1.18-16.035-8.27-12.004-16.653zm0 0" data-original="#b5b2be"></path><path fill="#d1d0d6" d="m364.207 387.11-26.738 15.437 44.183 76.527a256.455 256.455 0 0 0 25.953-16.793zm0 0" data-original="#d1d0d6"></path><path fill="#d1d0d6" d="m301.957 423.746 71.633-41.355c7.52-4.344 10.097-13.961 5.754-21.485-4.34-7.523-13.961-10.101-21.485-5.758l-71.632 41.36c-7.524 4.34-10.098 13.96-5.754 21.484 4.34 7.524 13.96 10.098 21.484 5.754zm0 0" data-original="#d1d0d6"></path><path fill="#b5b2be" d="m322.25 375.707-36.023 20.8c-7.524 4.34-10.098 13.962-5.758 21.485 4.344 7.524 13.965 10.102 21.484 5.754l35.52-20.504c-15.125 1.88-24.891-15.68-15.223-27.535zm0 0" data-original="#b5b2be"></path><path fill="#eceeed" d="m162.012 376.797 23.133-40.067 41.074 23.72-23.133 40.062zm0 0" data-original="#eceeed"></path><path fill="#d1d0d6" d="m162.012 376.797 23.133-40.067 20.539 11.86-23.133 40.066zm0 0" data-original="#d1d0d6"></path><path fill="#d1d0d6" d="M176.313 341.84c.867 1.5 2.125 2.8 3.734 3.73l41.078 23.715c4.883 2.82 11.129 1.149 13.95-3.734 2.82-4.887 1.148-11.13-3.74-13.95l-41.077-23.718c-4.887-2.82-11.13-1.145-13.95 3.738a10.203 10.203 0 0 0 .005 10.219zm0 0" data-original="#d1d0d6"></path><path fill="#b5b2be" d="m208.777 338.574-18.52-10.691c-4.886-2.82-11.128-1.145-13.948 3.738a10.203 10.203 0 0 0 .004 10.219c.867 1.5 2.125 2.8 3.734 3.73l20.312 11.727c-5.586-7.32-.855-18.02 8.418-18.723zm0 0" data-original="#b5b2be"></path><path fill="#d1d0d6" d="m138.418 382.39 71.633 41.356c7.523 4.344 17.14 1.766 21.484-5.758 4.344-7.52 1.766-17.14-5.758-21.484l-71.629-41.356c-7.523-4.343-17.144-1.765-21.488 5.758s-1.765 17.14 5.758 21.485zm0 0" data-original="#d1d0d6"></path><path fill="#b5b2be" d="m190.172 375.945-36.024-20.797c-7.523-4.343-17.14-1.765-21.488 5.758-4.34 7.524-1.765 17.14 5.758 21.485l35.52 20.507c-9.192-12.16 1.128-29.398 16.234-26.953zm0 0" data-original="#b5b2be"></path></g></svg>