<svg xmlns="http://www.w3.org/2000/svg" version="1.1" xmlns:xlink="http://www.w3.org/1999/xlink" xmlns:svgjs="http://svgjs.com/svgjs" width="512" height="512" x="0" y="0" viewBox="0 0 512 512" style="enable-background:new 0 0 512 512" xml:space="preserve" class=""><g><linearGradient id="a" x1="245.634" x2="260.993" y1="85.642" y2="377.448" gradientUnits="userSpaceOnUse"><stop offset="0" stop-color="#fc5c7d"></stop><stop offset=".129" stop-color="#f35e85"></stop><stop offset=".343" stop-color="#d9659b"></stop><stop offset=".616" stop-color="#b070bf"></stop><stop offset=".934" stop-color="#777ff0"></stop><stop offset="1" stop-color="#6a82fb"></stop></linearGradient><linearGradient xlink:href="#a" id="b" x1="127.361" x2="142.72" y1="91.867" y2="383.672"></linearGradient><linearGradient xlink:href="#a" id="c" x1="133.45" x2="148.808" y1="91.546" y2="383.352" gradientTransform="rotate(68.2 140.083 216.082)"></linearGradient><linearGradient xlink:href="#a" id="d" x1="117.032" x2="132.39" y1="92.411" y2="384.216" gradientTransform="rotate(21.8 128.113 301.151)"></linearGradient><linearGradient xlink:href="#a" id="e" x1="372.325" x2="387.683" y1="78.974" y2="370.78" gradientTransform="rotate(68.2 384.2 300.895)"></linearGradient><linearGradient xlink:href="#a" id="f" x1="366.698" x2="382.057" y1="79.27" y2="371.076"></linearGradient><linearGradient xlink:href="#a" id="g" x1="364.809" x2="380.167" y1="79.37" y2="371.175" gradientTransform="rotate(21.8 372.378 216.266)"></linearGradient><linearGradient xlink:href="#a" id="h" x1="253.328" x2="268.686" y1="85.237" y2="377.043"></linearGradient><linearGradient xlink:href="#a" id="i" x1="293.008" x2="308.366" y1="83.149" y2="374.954" gradientTransform="rotate(68.2 296.153 140.047)"></linearGradient><linearGradient xlink:href="#a" id="j" x1="213.229" x2="228.587" y1="87.348" y2="379.153" gradientTransform="rotate(21.8 216.218 140.17)"></linearGradient><linearGradient xlink:href="#a" id="k" x1="240.732" x2="256.09" y1="85.9" y2="377.706"></linearGradient><linearGradient xlink:href="#a" id="l" x1="284.988" x2="300.346" y1="83.571" y2="375.376" gradientTransform="rotate(21.8 301.084 384.434)"></linearGradient><linearGradient xlink:href="#a" id="m" x1="195.635" x2="210.994" y1="88.274" y2="380.079" gradientTransform="rotate(68.2 211.33 384.171)"></linearGradient><path fill="url(#a)" d="m403.633 373.269 11.313-11.313-11.313-11.314-11.314 11.313-11.314-11.314a8 8 0 0 0 0-11.314L358.377 316.7a8 8 0 0 0-8.186-1.932l-3.795 1.265-58.243-58.243 192.8-192.813a23.995 23.995 0 1 0-33.924-33.943L254.22 223.856l-190-190A24 24 0 0 0 30.28 67.8l189.993 189.993-39.112 39.107-5.661-5.661a8 8 0 0 0-11.313 0l-22.627 22.633a8 8 0 0 0-.912 10.214l-32.023 22.874a8 8 0 0 0-1.007 12.167l5.657 5.657-11.313 11.316-11.315-11.317L79.334 376.1l11.314 11.313-22.628 22.626-5.657-5.657a8 8 0 0 0-12.163 1.007l-28.284 39.6a8 8 0 0 0 .853 10.308l33.941 33.941a8 8 0 0 0 10.306.853l39.6-28.284a8 8 0 0 0 1.007-12.167l-5.657-5.657 22.628-22.628 11.306 11.311 11.314-11.314-11.314-11.313 11.313-11.314 5.657 5.657a8 8 0 0 0 5.656 2.343q.33 0 .66-.028a8 8 0 0 0 5.851-3.322l22.873-32.023a7.987 7.987 0 0 0 10.215-.911l22.627-22.628a8 8 0 0 0 0-11.314l-5.66-5.66 39.112-39.112 41.955 41.955a7.967 7.967 0 0 0-.01 11.3l39.6 39.6a8 8 0 0 0 11.314 0l101.824 101.824a8 8 0 0 0 11.314 0l22.627-22.627a8 8 0 0 0 0-11.314zm0 22.628-11.314 11.313-11.314-11.31 11.314-11.314zm-33.941-11.314-11.313-11.314 11.313-11.314 11.314 11.314zm88.66-342.24a7.995 7.995 0 1 1 11.3 11.31L276.84 246.476l-11.307-11.306zM39.25 50.828a8 8 0 0 1 13.658-5.656L329.425 321.69l-16.97 5.656L41.594 56.486a7.949 7.949 0 0 1-2.344-5.658zm112.758 284.807 6.521 6.521-22.629 22.627-10.291-10.293zm-94.28 86.739 10.292 10.293-22.628 22.627-6.521-6.522zm5.5 50.755-6.521-6.521 22.627-22.628 10.293 10.293zm27.419-40.463-11.313-11.313 22.628-22.628 11.313 11.313zm33.942-33.941-11.313-11.314 11.313-11.311 11.311 11.311zm32.92-12.335-10.293-10.29 22.627-22.627 6.522 6.522zm34.962-32.919-33.941-33.942 11.314-11.314 33.941 33.941zm11.31-33.946-11.306-11.306 39.112-39.112 11.306 11.306zm112.838 23.3 33.941-11.313 13.475 13.473-22.628 22.628zm137.925 126.611-50.911-50.912 11.313-11.313 50.911 50.911z" data-original="url(#a)"></path><path fill="url(#b)" d="M88 248h96v16H88z" data-original="url(#b)"></path><path fill="url(#c)" d="M132 194.459h16v43.081h-16z" transform="rotate(-68.2 140.04 216.109)" data-original="url(#c)"></path><path fill="url(#d)" d="M119.384 292.8h17.233v16h-17.233z" transform="rotate(-21.8 128.175 301.125)" data-original="url(#d)"></path><path fill="url(#e)" d="M376 292.183h16v17.233h-16z" transform="rotate(-68.2 384.14 300.97)" data-original="url(#e)"></path><path fill="url(#f)" d="M328 248h96v16h-96z" data-original="url(#f)"></path><path fill="url(#g)" d="M350.459 208h43.081v16h-43.081z" transform="rotate(-21.8 372.417 216.197)" data-original="url(#g)"></path><path fill="url(#h)" d="M248 88h16v96h-16z" data-original="url(#h)"></path><path fill="url(#i)" d="M274.459 132h43.081v16h-43.081z" transform="rotate(-68.2 296.133 140.088)" data-original="url(#i)"></path><path fill="url(#j)" d="M208 118.459h16v43.081h-16z" transform="rotate(-21.8 216.245 140.13)" data-original="url(#j)"></path><path fill="url(#k)" d="M248 328h16v96h-16z" data-original="url(#k)"></path><path fill="url(#l)" d="M292.8 375.384h16v17.232h-16z" transform="rotate(-21.8 301.152 384.38)" data-original="url(#l)"></path><path fill="url(#m)" d="M202.584 376h17.232v16h-17.232z" transform="rotate(-68.2 211.275 384.2)" data-original="url(#m)"></path></g></svg>