<svg xmlns="http://www.w3.org/2000/svg" version="1.1" xmlns:xlink="http://www.w3.org/1999/xlink" xmlns:svgjs="http://svgjs.com/svgjs" width="512" height="512" x="0" y="0" viewBox="0 0 512 512" style="enable-background:new 0 0 512 512" xml:space="preserve" class=""><g><linearGradient id="a" x1="256" x2="256" y1="-13.488" y2="416.541" gradientUnits="userSpaceOnUse"><stop offset="0" stop-color="#fc5c7d"></stop><stop offset=".129" stop-color="#f35e85"></stop><stop offset=".343" stop-color="#d9659b"></stop><stop offset=".616" stop-color="#b070bf"></stop><stop offset=".934" stop-color="#777ff0"></stop><stop offset="1" stop-color="#6a82fb"></stop></linearGradient><g fill="url(#a)"><path d="m93.942 323.554 2.876 1.327 7.337 36.688 15.69-3.138-5.051-25.254 48.084 22.193a26.159 26.159 0 1 0 21.925-47.5L128 281.65V176a8 8 0 0 0-8-8h-8v-18a78.011 78.011 0 0 1 60.563-76.031L168.04 119.2A8 8 0 0 0 176 128h160a8 8 0 0 0 7.96-8.8l-4.523-45.235A78.011 78.011 0 0 1 400 150v18h-8a8 8 0 0 0-8 8v105.65l-56.8 26.217a26.16 26.16 0 1 0 21.926 47.5l48.084-22.193-5.051 25.254 15.69 3.138 7.337-36.688 2.876-1.327A24.072 24.072 0 0 0 432 301.763V192a24.039 24.039 0 0 0-16-22.624V150a93.98 93.98 0 0 0-79.82-92.917A39.865 39.865 0 0 0 299.041 32h-86.082a39.865 39.865 0 0 0-37.139 25.083A93.98 93.98 0 0 0 96 150v19.376A24.039 24.039 0 0 0 80 192v109.763a24.072 24.072 0 0 0 13.942 21.791zM408 184a8.009 8.009 0 0 1 8 8v32h-16v-40zm-8 98.89V272h16v23.5zM416 256h-16v-16h16zm-25.1 40.089 17.9 14.111-13.684 6.316-17.9-14.115zm-12.083 27.954-11.837 5.463-17.9-14.115 11.837-5.463zm-36.4 16.8A10.16 10.16 0 0 1 328 331.619a10.183 10.183 0 0 1 4.853-8.644l17.826 14.054zM189.079 69.611A23.924 23.924 0 0 1 212.959 48h86.082a23.924 23.924 0 0 1 23.88 21.611L327.16 112H184.84zM112 256H96v-16h16zm0 16v10.89l-16 12.615V272zm21.184 52.043 17.9-14.115 11.837 5.463-17.9 14.115zm46.132 16.133a9.992 9.992 0 0 1-9.733.667l-8.262-3.814 17.826-14.054a10.183 10.183 0 0 1 4.853 8.644 9.985 9.985 0 0 1-4.684 8.557zm-44.53-37.776-17.9 14.115L103.2 310.2l17.9-14.115zM104 184h8v40H96v-32a8.009 8.009 0 0 1 8-8z" fill=""></path><path d="M296 368v-65.65l67.353-31.086A8 8 0 0 0 368 264v-88a8 8 0 0 0-10.353-7.646L256 199.63l-101.647-31.276A8 8 0 0 0 144 176v88a8 8 0 0 0 4.647 7.264L216 302.35V368h16v-65.991l24-12.923 24 12.923V368zm48.483-178.855-13.816 27.633-38.154 6.36-7.8-15.6zm-117.195 18.391-7.8 15.6-38.154-6.36-13.816-27.633zM160 258.881v-48.992l8.845 17.689a8 8 0 0 0 5.84 4.314l48 8a8.007 8.007 0 0 0 8.47-4.314l11.636-23.272 10.856 3.34a8.013 8.013 0 0 0 4.706 0l10.856-3.34 11.636 23.272a8.007 8.007 0 0 0 8.47 4.314l48-8a8 8 0 0 0 5.84-4.314L352 209.889v48.992l-63.725 29.411L264 275.221V240h-16v35.221l-24.275 13.071zM461.291 379.039a32.044 32.044 0 0 0-24.959-7.9L256 391.947 75.668 371.14A32 32 0 0 0 40 402.929V472h16v-55.024l199.083 22.971a7.959 7.959 0 0 0 1.834 0L456 416.976V472h16v-69.071a32.029 32.029 0 0 0-10.709-23.89zM256 423.947 56.14 400.886a15.983 15.983 0 0 1 17.694-13.852l181.249 20.913a7.922 7.922 0 0 0 1.834 0l181.249-20.913a15.983 15.983 0 0 1 17.694 13.852z" fill=""></path><path d="M248 312h16v16h-16zM248 344h16v16h-16zM296 64h-80a8 8 0 0 0-7.589 5.47l-8 24 15.178 5.06L221.766 80h68.468l6.177 18.53 15.178-5.06-8-24A8 8 0 0 0 296 64z" fill=""></path></g></g></svg>