<svg xmlns="http://www.w3.org/2000/svg" version="1.1" xmlns:xlink="http://www.w3.org/1999/xlink" xmlns:svgjs="http://svgjs.com/svgjs" width="512" height="512" x="0" y="0" viewBox="0 0 512 512" style="enable-background:new 0 0 512 512" xml:space="preserve" class="">
<g>
<path d="M264.137 384.796c14.912 14.834 14.912 39.066.078 53.901l-17.941 17.941c-14.835 14.834-39.067 14.834-53.901 0L18.632 282.975c-7.223-7.223-11.184-16.776-11.184-26.95s3.961-19.805 11.184-26.951L192.373 55.411c7.456-7.456 17.164-11.184 26.95-11.184s19.494 3.728 26.951 11.184l17.941 17.863c14.834 14.912 14.834 39.067-.078 53.979L135.365 256.025z" fill="#ffff00" data-original="#000000" class=""></path>
<path d="m364.547 256.01 128.826-128.788c14.866-14.862 14.87-39.05.008-53.916l-17.9-17.907h-.004c-14.879-14.887-39.013-14.91-53.916-.008L247.85 229.047c-7.202 7.202-11.168 16.777-11.168 26.963s3.967 19.762 11.168 26.96l173.712 173.659c14.893 14.893 39.079 14.833 53.916-.004l17.904-17.911c14.895-14.895 14.899-39.017-.008-53.916zm117.851 171.721-17.904 17.911c-8.806 8.813-23.137 8.817-31.95.004L258.832 271.987a22.455 22.455 0 0 1-6.618-15.977 22.46 22.46 0 0 1 6.618-15.981L432.544 66.375c8.815-8.815 23.126-8.829 31.947.008h.004l17.904 17.907c8.806 8.81 8.802 23.141-.008 31.95L348.07 250.519a7.768 7.768 0 0 0 0 10.982l134.32 134.28c8.842 8.841 8.826 23.132.008 31.95z" fill="#ffff00" data-original="#000000" class="">
</path>
</g></svg>