<svg xmlns="http://www.w3.org/2000/svg" version="1.1" xmlns:xlink="http://www.w3.org/1999/xlink" xmlns:svgjs="http://svgjs.com/svgjs" width="512" height="512" x="0" y="0" viewBox="0 0 512 512" style="enable-background:new 0 0 512 512" xml:space="preserve" class=""><g><linearGradient id="a" x1="192" x2="192" y1="-13.488" y2="416.541" gradientUnits="userSpaceOnUse"><stop offset="0" stop-color="#fc5c7d"></stop><stop offset=".129" stop-color="#f35e85"></stop><stop offset=".343" stop-color="#d9659b"></stop><stop offset=".616" stop-color="#b070bf"></stop><stop offset=".934" stop-color="#777ff0"></stop><stop offset="1" stop-color="#6a82fb"></stop></linearGradient><linearGradient xlink:href="#a" id="b" x1="256" x2="256" y1="-13.488" y2="416.541"></linearGradient><linearGradient xlink:href="#a" id="c" x1="324" x2="324" y1="-13.488" y2="416.541"></linearGradient><linearGradient xlink:href="#a" id="d" x1="176" x2="176" y1="-13.488" y2="416.541"></linearGradient><linearGradient xlink:href="#a" id="e" x1="184" x2="184" y1="-13.488" y2="416.541"></linearGradient><linearGradient xlink:href="#a" id="f" x1="112" x2="112" y1="-13.488" y2="416.541"></linearGradient><linearGradient xlink:href="#a" id="g" x1="456" x2="456" y1="-13.488" y2="416.541"></linearGradient><linearGradient xlink:href="#a" id="h" x1="368" x2="368" y1="-13.488" y2="416.541"></linearGradient><linearGradient xlink:href="#a" id="i" x1="464" x2="464" y1="-13.488" y2="416.541"></linearGradient><linearGradient xlink:href="#a" id="j" x1="424" x2="424" y1="-13.488" y2="416.541"></linearGradient><path fill="url(#a)" d="M152.4 132.247c-11.926 11.927-19.164 27.192-20.379 42.984-1.25 16.256 3.978 31.125 14.722 41.87 9.7 9.7 22.76 14.9 37.17 14.9q2.327 0 4.7-.182c15.793-1.215 31.058-8.452 42.985-20.379s19.164-27.192 20.379-42.984c1.25-16.256-3.978-31.125-14.722-41.869-21.834-21.832-59.899-19.293-84.855 5.66zm83.621 34.984c-.921 11.988-6.511 23.67-15.739 32.9-9.227 9.227-20.911 14.817-32.9 15.739-11.523.883-21.939-2.695-29.327-10.083s-10.969-17.8-10.082-29.327c.921-11.987 6.511-23.67 15.739-32.9 10.472-10.473 23.821-15.879 36.284-15.879 9.81 0 19.072 3.352 25.941 10.221 7.393 7.39 10.973 17.806 10.086 29.329z" data-original="url(#a)"></path><path fill="url(#a)" d="M184 163.846h16v16h-16z" data-original="url(#a)"></path><path fill="url(#b)" d="M488.944 198.075a8 8 0 0 0-7.765-6.075h-42.241l-2.285-16H464v-16h-29.633l-2.448-17.132a7.99 7.99 0 0 0-3.482-5.524L414.422 128H440v-16h-49.578l-9.985-6.656A8 8 0 0 0 376 104h-32V88h40V72h-40V38.165a8 8 0 0 0-5.242-7.51A240.523 240.523 0 0 0 48.054 136H48v.093A236.951 236.951 0 0 0 24.584 192H24v2.221A241.358 241.358 0 0 0 16 256a238.58 238.58 0 0 0 32 119.907V376h.054a241.36 241.36 0 0 0 38.24 49.7 240.09 240.09 0 0 0 285.574 40.506 8 8 0 0 0 4.132-7V440h24v-16h-24v-16h72v-16h-60.687l16-16H440a8 8 0 0 0 8-8v-16h32v-16h-32v-17.351l36.479-6.784a8 8 0 0 0 6.365-6.218 241.434 241.434 0 0 0-1.9-107.572zM136 304v16h176v40H57.5a221.144 221.144 0 0 1-16.26-40H88v-16H37.138a225.353 225.353 0 0 1-4.982-40H192v40zm340.222-6.874-37.685 7.009A8 8 0 0 0 432 312v48h-32a8 8 0 0 0-5.657 2.343l-32 32A8 8 0 0 0 360 400v54.431A224.175 224.175 0 0 1 117.4 432H160v-16H99.256c-.548-.538-1.1-1.065-1.648-1.608A225.909 225.909 0 0 1 66.767 376H248v40h-40v16h136v-16h-80v-40h96v-16h-32v-40h88v-16H208v-40h224v-16h-72v-40h48v-16H264v16h80v40H32.156a225.353 225.353 0 0 1 4.982-40H120v-16H41.24a221.144 221.144 0 0 1 16.26-40H120v-16H66.767a225.909 225.909 0 0 1 30.841-38.392c.544-.543 1.1-1.07 1.648-1.608H152V80h-34.6A224.437 224.437 0 0 1 328 43.822V112a8 8 0 0 0 8 8h37.578l43.008 28.672 7.5 52.46A8 8 0 0 0 432 208h42.83a225.557 225.557 0 0 1 1.392 89.126z" data-original="url(#b)" class=""></path><path fill="url(#c)" d="M272 136h104v16H272z" data-original="url(#c)"></path><path fill="url(#d)" d="M168 80h16v16h-16z" data-original="url(#d)"></path><path fill="url(#b)" d="M200 80h112v16H200z" data-original="url(#b)" class=""></path><path fill="url(#e)" d="M176 416h16v16h-16z" data-original="url(#e)"></path><path fill="url(#f)" d="M104 304h16v16h-16z" data-original="url(#f)"></path><path fill="url(#g)" d="M448 248h16v16h-16z" data-original="url(#g)"></path><path fill="url(#h)" d="M360 40h16v16h-16z" data-original="url(#h)"></path><path fill="url(#i)" d="M456 128h16v16h-16z" data-original="url(#i)"></path><path fill="url(#j)" d="M416 424h16v16h-16z" data-original="url(#j)"></path></g></svg>